<svg width="54" height="54" viewBox="0 0 54 54" fill="none" xmlns="http://www.w3.org/2000/svg">
<path fill-rule="evenodd" clip-rule="evenodd" d="M10.5 54H43.5C49.299 54 54 49.299 54 43.5V10.5C54 4.701 49.299 0 43.5 0H10.5C4.701 0 0 4.701 0 10.5V43.5C0 49.299 4.701 54 10.5 54ZM16.7549 39.4397C17.3181 40.1569 17.9919 40.7778 18.7508 41.2848L18.7299 41.3056C19.5032 41.7869 20.2797 42.0276 21.114 42.0276C21.6499 41.9939 22.1825 41.9008 22.7024 41.7468C22.9529 41.6685 23.3793 41.4909 24.0261 41.2213L24.0741 41.2013C24.5506 40.9944 25.0319 40.8211 25.5293 40.6799C26.1229 40.5275 26.7486 40.4473 27.3904 40.4473C28.0225 40.4457 28.6482 40.5227 29.2579 40.6831C29.7536 40.8307 30.2397 41.0136 30.7098 41.2286C31.159 41.4227 31.6179 41.5944 32.0832 41.7468C32.619 41.9025 33.1806 41.9747 33.7421 41.9506C34.5716 41.9506 35.3818 41.7083 36.0717 41.2511C36.6974 40.8387 37.3199 40.2612 37.9648 39.4911C38.3788 38.9937 38.9242 38.2397 39.6173 37.2289C40.4035 36.0577 41.0661 34.8175 41.6228 33.5228C41.8683 32.9452 42.0801 32.3596 42.2726 31.758C41.8587 31.6055 41.4223 31.3729 40.9249 31.036C39.9141 30.3589 39.0847 29.5343 38.4638 28.5717C37.5814 27.248 37.1402 25.7207 37.1161 23.9831C37.1065 22.5713 37.4594 21.1755 38.1493 19.9401C38.6788 19.0336 39.3414 18.2154 40.1227 17.5255C40.4837 17.1982 40.8688 16.8998 41.2859 16.6431C40.3008 15.1831 38.9804 14.1563 37.3439 13.4985C36.4134 13.1455 35.3705 12.9049 34.2314 12.8247C33.6362 12.7765 33.0153 12.8086 32.3896 12.9049C31.873 12.9851 31.2986 13.1455 30.705 13.322C30.5609 13.3754 30.4029 13.4354 30.2297 13.5011C29.9346 13.6132 29.5952 13.742 29.2049 13.8836C28.6407 14.1295 28.2265 14.2711 27.98 14.3553C27.9531 14.3645 27.9282 14.373 27.9054 14.3809C27.4962 14.5093 27.1272 14.5895 26.8705 14.5895C26.5336 14.5895 26.1004 14.5093 25.587 14.3167C25.5068 14.2927 25.3464 14.2285 25.0957 14.1282C24.845 14.0279 24.5041 13.8916 24.0629 13.7231C23.373 13.4664 22.8115 13.2578 22.3462 13.1295C21.7044 12.9691 21.0948 12.8888 20.5332 12.8888C18.9289 12.9209 17.3405 13.3862 15.9768 14.2365C14.5649 15.0852 13.3937 16.2933 12.6076 17.7373C11.5455 19.5823 11 21.7803 11 24.2992C11 26.5566 11.3899 28.8637 12.1921 31.2734C12.8579 33.3447 13.8189 35.3101 15.0479 37.107C15.5709 37.9156 16.1404 38.6969 16.7549 39.4397ZM26.5817 12.3674C27.6198 12.4444 28.6562 12.2134 29.7472 11.6679L29.7167 11.6663C30.697 11.1689 31.5633 10.4791 32.2613 9.64478C32.9543 8.79446 33.4998 7.84787 33.8656 6.82107C34.2667 5.66591 34.3951 4.59098 34.2667 3.5C33.3041 3.54813 32.2933 3.83692 31.2344 4.38241C30.2397 4.87977 29.3573 5.56965 28.6193 6.40393C27.9134 7.20612 27.4 8.10457 27.0149 9.09929C26.5817 10.2657 26.4213 11.331 26.5817 12.3674Z" fill="#4B4B4B"/>
</svg>
