<svg width="54" height="54" viewBox="0 0 54 54" fill="none" xmlns="http://www.w3.org/2000/svg">
<path d="M43.5 54H10.5C4.701 54 0 49.299 0 43.5V10.5C0 4.701 4.701 0 10.5 0H43.5C49.299 0 54 4.701 54 10.5V43.5C54 49.299 49.299 54 43.5 54Z" fill="#4B4B4B"/>
<path d="M39.3935 26.3728C38.0724 25.3778 36.1905 24.9799 36.1905 24.9799C36.1905 24.9799 37.783 24.0566 38.4338 23.1342C39.0853 22.2114 39.4109 20.7817 39.4653 20.0399C39.5194 19.2978 39.6463 16.186 37.2215 14.395C35.3459 13.0091 33.1966 12.459 30.3103 12.28V6H26.4383V12.2058H23.489V6H19.6174V12.2058H12V16.2267H14.2389C14.8494 16.2267 15.935 16.2946 16.3963 16.8109C16.8578 17.3263 16.9392 17.5979 16.9392 18.6016L16.9394 34.6237C16.9394 35.0036 16.867 35.4737 16.5411 35.7815C16.2157 36.0894 15.8901 36.1612 15.1118 36.1612H12.7961L12 40.8118H19.6174V47H23.4892V40.8118H26.4384V47H30.3105V40.7097C31.3114 40.6512 32.2447 40.5754 32.789 40.5041C33.8929 40.3597 36.3896 40.0702 38.7241 38.4416C41.0578 36.8129 41.5821 34.2616 41.6366 31.6925C41.6916 29.1233 40.7133 27.3679 39.3935 26.3728V26.3728ZM23.489 16.5845C23.489 16.5845 24.7192 16.4761 25.9315 16.4939C27.1442 16.5118 28.2112 16.5481 29.8039 17.0368C31.3959 17.5256 32.336 18.7198 32.373 20.1312C32.409 21.5425 31.7931 22.483 30.708 23.0802C29.6226 23.6772 28.1216 24.003 26.7097 24.0567C25.2987 24.1112 23.489 24.0567 23.489 24.0567V16.5845V16.5845ZM32.1556 35.0939C31.269 35.5827 29.4957 36.0168 27.7772 36.1431C26.0582 36.27 23.489 36.2157 23.489 36.2157V27.9105C23.489 27.9105 25.9498 27.7842 27.8679 27.9105C29.7856 28.0377 31.3959 28.5258 32.1192 28.8882C32.8429 29.2498 34.1099 30.0457 34.1099 31.9459C34.1099 33.8454 33.0416 34.6054 32.1556 35.0939V35.0939Z" fill="white"/>
</svg>
