<svg width="279" height="280" viewBox="0 0 279 280" fill="none" xmlns="http://www.w3.org/2000/svg">
<rect x="142.363" y="0.0263672" width="40" height="40" transform="rotate(46.9551 142.363 0.0263672)" fill="#F0F0F0"/>
<rect x="218.811" y="81.8779" width="40" height="40" transform="rotate(46.9551 218.811 81.8779)" fill="#F0F0F0"/>
<rect x="139.883" y="155.596" width="40" height="40" transform="rotate(46.9551 139.883 155.596)" fill="#F0F0F0"/>
<rect x="64.7998" y="75.2056" width="40" height="40" transform="rotate(46.9551 64.7998 75.2056)" fill="#F0F0F0"/>
<rect x="107.284" y="32.7896" width="40" height="40" transform="rotate(46.9551 107.284 32.7896)" fill="#F0F0F0"/>
<rect x="183.732" y="114.641" width="40" height="40" transform="rotate(46.9551 183.732 114.641)" fill="#F0F0F0"/>
<rect x="104.803" y="188.359" width="40" height="40" transform="rotate(46.9551 104.803 188.359)" fill="#F0F0F0"/>
<rect x="29.7205" y="107.969" width="40" height="40" transform="rotate(46.9551 29.7205 107.969)" fill="#F0F0F0"/>
<rect x="175.126" y="35.1055" width="40" height="40" transform="rotate(46.9551 175.126 35.1055)" fill="#F0F0F0"/>
<rect x="251.574" y="116.957" width="40" height="40" transform="rotate(46.9551 251.574 116.957)" fill="#F0F0F0"/>
<rect x="172.646" y="190.675" width="40" height="40" transform="rotate(46.9551 172.646 190.675)" fill="#F0F0F0"/>
<rect x="97.5632" y="110.285" width="40" height="40" transform="rotate(46.9551 97.5632 110.285)" fill="#F0F0F0"/>
<rect x="140.047" y="67.8691" width="40" height="40" transform="rotate(46.9551 140.047 67.8691)" fill="#F0F0F0"/>
<rect x="216.495" y="149.721" width="40" height="40" transform="rotate(46.9551 216.495 149.721)" fill="#F0F0F0"/>
<rect x="137.567" y="223.438" width="40" height="40" transform="rotate(46.9551 137.567 223.438)" fill="#F0F0F0"/>
<rect x="62.4839" y="143.048" width="40" height="40" transform="rotate(46.9551 62.4839 143.048)" fill="#F0F0F0"/>
</svg>
