<svg width="54" height="54" viewBox="0 0 54 54" fill="none" xmlns="http://www.w3.org/2000/svg">
<path d="M53.0775 7.8075C52.5045 6.23172 51.5931 4.80067 50.4075 3.61504C49.2218 2.42942 47.7908 1.51802 46.215 0.945C43.2675 0 40.59 0 35.145 0H18.81C13.41 0 10.6875 0 7.785 0.9C6.20694 1.47541 4.77444 2.39025 3.58867 3.57992C2.40289 4.76958 1.49274 6.20506 0.9225 7.785C0 10.71 0 13.41 0 18.81V35.1675C0 40.59 0 43.2675 0.9 46.1925C1.47302 47.7683 2.38442 49.1993 3.57005 50.3849C4.75567 51.5706 6.18673 52.482 7.7625 53.055C10.6875 53.9775 13.3875 53.9775 18.7875 53.9775H35.1675C40.59 53.9775 43.29 53.9775 46.1925 53.0775C47.7747 52.5049 49.2117 51.5913 50.4015 50.4015C51.5913 49.2116 52.5049 47.7747 53.0775 46.1925C54 43.2675 54 40.5675 54 35.1675V18.855C54 13.4325 54 10.7325 53.0775 7.8075ZM39.195 18.225L37.1025 20.3175C36.8986 20.5072 36.6315 20.6145 36.3531 20.6186C36.0746 20.6228 35.8045 20.5235 35.595 20.34C33.5685 18.6286 31.0025 17.6882 28.35 17.685C26.1675 17.685 23.985 18.405 23.985 20.4075C23.985 22.4325 26.325 23.1075 29.025 24.12C33.75 25.695 37.665 27.675 37.665 32.31C37.665 37.35 33.75 40.815 27.36 41.1975L26.775 43.8975C26.7233 44.1456 26.5876 44.3683 26.3909 44.5282C26.1942 44.688 25.9485 44.7752 25.695 44.775H21.6675L21.465 44.7525C21.1767 44.6878 20.9255 44.5123 20.7655 44.2639C20.6055 44.0156 20.5497 43.7142 20.61 43.425L21.24 40.5675C18.815 39.9596 16.5848 38.7438 14.76 37.035V37.0125C14.6593 36.9122 14.5794 36.7929 14.5249 36.6617C14.4704 36.5304 14.4423 36.3896 14.4423 36.2475C14.4423 36.1054 14.4704 35.9646 14.5249 35.8333C14.5794 35.7021 14.6593 35.5828 14.76 35.4825L17.01 33.3C17.2143 33.1086 17.4838 33.0021 17.7638 33.0021C18.0437 33.0021 18.3132 33.1086 18.5175 33.3C20.565 35.235 23.31 36.315 26.145 36.27C29.07 36.27 31.0275 35.0325 31.0275 33.075C31.0275 31.1175 29.0475 30.6 25.3125 29.205C21.3525 27.7875 17.595 25.785 17.595 21.105C17.595 15.66 22.1175 13.005 27.4725 12.7575L28.035 9.99C28.0873 9.74404 28.2238 9.52405 28.421 9.36797C28.6182 9.21189 28.8636 9.12949 29.115 9.135H33.12L33.345 9.1575C33.93 9.2925 34.3125 9.855 34.1775 10.44L33.57 13.5225C35.595 14.1975 37.5075 15.255 39.15 16.65L39.195 16.695C39.6225 17.145 39.6225 17.82 39.195 18.225Z" fill="#4B4B4B"/>
</svg>
