<svg width="19" height="19" viewBox="0 0 19 19" fill="none" xmlns="http://www.w3.org/2000/svg">
<path d="M9.49991 6.59749V10.22M8.56241 2.33749C9.08741 1.89499 9.93491 1.89499 10.4449 2.33749L11.6299 3.34999C11.8549 3.53749 12.2824 3.69499 12.5824 3.69499H13.8574C14.6524 3.69499 15.3049 4.34749 15.3049 5.14249V6.41749C15.3049 6.71749 15.4624 7.13749 15.6499 7.36249L16.6624 8.54749C17.1049 9.07249 17.1049 9.91999 16.6624 10.43L15.6499 11.615C15.4624 11.84 15.3049 12.26 15.3049 12.56V13.835C15.3049 14.63 14.6524 15.2825 13.8574 15.2825H12.5824C12.2824 15.2825 11.8624 15.44 11.6374 15.6275L10.4524 16.64C9.92741 17.0825 9.07991 17.0825 8.56991 16.64L7.38491 15.6275C7.15991 15.44 6.73241 15.2825 6.43991 15.2825H5.12741C4.33241 15.2825 3.67991 14.63 3.67991 13.835V12.5525C3.67991 12.26 3.52991 11.8325 3.34241 11.615L2.32991 10.4225C1.89491 9.90499 1.89491 9.06499 2.32991 8.54749L3.34241 7.35499C3.52991 7.12999 3.67991 6.70999 3.67991 6.41749V5.14999C3.67991 4.35499 4.33241 3.70249 5.12741 3.70249H6.42491C6.72491 3.70249 7.14491 3.54499 7.36991 3.35749L8.56241 2.33749Z" stroke="white" stroke-width="1.5" stroke-linecap="round" stroke-linejoin="round"/>
<path d="M9.49634 12.5H9.50309" stroke="white" stroke-width="2" stroke-linecap="round" stroke-linejoin="round"/>
</svg>
