<svg width="32" height="32" viewBox="0 0 32 32" fill="none" xmlns="http://www.w3.org/2000/svg">
<path d="M25.59 7.74003C25.59 8.58003 24.89 9.21003 24.12 9.21003C23.28 9.21003 22.65 8.51003 22.65 7.74003C22.65 6.90003 23.35 6.27002 24.12 6.27002C24.89 6.20002 25.59 6.90003 25.59 7.74003ZM31.33 8.37003V23.63C31.33 27.97 27.76 31.54 23.42 31.54H8.16C3.82 31.54 0.25 27.97 0.25 23.63V8.37003C0.25 4.03002 3.82 0.460022 8.16 0.460022H23.42C27.83 0.460022 31.33 4.03002 31.33 8.37003ZM28.39 8.37003C28.39 5.64003 26.15 3.40002 23.42 3.40002H8.16C5.43 3.40002 3.19 5.64003 3.19 8.37003V23.63C3.19 26.36 5.43 28.6 8.16 28.6H23.42C26.22 28.6 28.46 26.36 28.46 23.63L28.39 8.37003ZM23.91 16C23.91 11.52 20.27 7.88003 15.79 7.88003C11.31 7.88003 7.67 11.52 7.67 16C7.67 20.48 11.31 24.12 15.79 24.12C20.27 24.12 23.91 20.48 23.91 16ZM20.97 16C20.97 18.87 18.66 21.18 15.79 21.18C12.92 21.18 10.61 18.87 10.61 16C10.61 13.13 12.92 10.82 15.79 10.82C18.66 10.82 20.97 13.13 20.97 16Z" fill="#17BF83"/>
</svg>
