<svg width="61" height="61" viewBox="0 0 61 61" fill="none" xmlns="http://www.w3.org/2000/svg">
<path d="M30.5 13.8636C34.9122 13.8636 39.1438 15.6164 42.2637 18.7363C45.3836 21.8562 47.1364 26.0878 47.1364 30.5C47.1364 36.6555 43.7814 42.0345 38.8182 44.9182V49.9091C38.8182 50.6445 38.5261 51.3497 38.0061 51.8697C37.4861 52.3897 36.7808 52.6818 36.0455 52.6818H24.9545C24.2192 52.6818 23.5139 52.3897 22.9939 51.8697C22.4739 51.3497 22.1818 50.6445 22.1818 49.9091V44.9182C17.2186 42.0345 13.8636 36.6555 13.8636 30.5C13.8636 26.0878 15.6164 21.8562 18.7363 18.7363C21.8562 15.6164 26.0878 13.8636 30.5 13.8636ZM36.0455 55.4545V58.2273C36.0455 58.9626 35.7533 59.6679 35.2333 60.1879C34.7134 60.7079 34.0081 61 33.2727 61H27.7273C26.9919 61 26.2866 60.7079 25.7667 60.1879C25.2467 59.6679 24.9545 58.9626 24.9545 58.2273V55.4545H36.0455ZM52.6818 27.7273H61V33.2727H52.6818V27.7273ZM0 27.7273H8.31818V33.2727H0V27.7273ZM33.2727 0V8.31818H27.7273V0H33.2727ZM10.8691 6.93182L16.775 12.8655L12.8377 16.775L6.93182 10.8968L10.8691 6.93182ZM44.225 12.8377L50.1032 6.93182L54.0682 10.8968L48.1623 16.775L44.225 12.8377Z" fill="white"/>
</svg>
