<svg width="54" height="55" viewBox="0 0 54 55" fill="none" xmlns="http://www.w3.org/2000/svg">
<path d="M15.3895 54.7375H8.31015C6.79574 54.7375 5.83327 53.531 6.17538 52.0463L6.51521 50.5091H11.2386C12.7576 50.5091 14.2857 49.2934 14.6186 47.8132L17.0453 37.3401C17.3874 35.8622 18.9064 34.6489 20.4208 34.6489H22.4347C31.0764 34.6489 37.7931 32.8722 42.5964 29.3119C47.3996 25.7517 49.8035 21.1013 49.8035 15.3197C49.8035 12.7538 49.3587 10.6328 48.4624 8.95871C48.4624 8.92222 48.4259 8.88801 48.4259 8.8538L48.7338 9.02485C50.4443 10.0854 51.7444 11.4515 52.6361 13.1621C53.5575 14.8726 54 16.9937 54 19.5276C54 25.3093 51.6075 29.9597 46.7838 33.5199C41.9942 37.0436 35.2547 38.8203 26.6358 38.8203H24.5832C23.0779 38.8203 21.5407 40.0177 21.1985 41.5253L18.7696 52.028C18.4297 53.4991 16.9222 54.6965 15.4169 54.6965L15.3895 54.7375ZM9.28402 48.591H2.20235C0.690228 48.591 -0.269959 47.3845 0.0675886 45.8997L10.0412 2.69582C10.3856 1.20651 11.9 0 13.419 0H28.1639C31.3455 0 34.1143 0.223512 36.484 0.659131C38.8446 1.09019 40.863 1.84283 42.6055 2.91705C44.2841 3.97759 45.6206 5.362 46.4759 7.06342C47.3631 8.76941 47.8078 10.895 47.8078 13.4426C47.8078 19.2243 45.4108 23.8747 40.5916 27.3984C35.8021 30.9586 29.0602 32.7034 20.4391 32.7034H18.4252C16.9199 32.7034 15.3964 33.8985 15.0543 35.3696L12.6344 45.8358C12.2946 47.3092 10.7711 48.5089 9.24753 48.5089L9.28402 48.591ZM26.2663 8.97695H23.9537C22.4347 8.97695 20.9157 10.1835 20.5782 11.6637L18.4571 20.8322C18.115 22.3101 19.0729 23.5212 20.5782 23.5212H22.3252C26.1204 23.5212 29.099 22.7389 31.2201 21.1925C33.3389 19.628 34.4017 17.4202 34.4017 14.5511C34.4017 12.6581 33.7152 11.2554 32.349 10.3545C30.9806 9.4331 28.9279 8.97467 26.223 8.97467L26.2663 8.97695Z" fill="#4B4B4B"/>
</svg>
