<svg width="61" height="61" viewBox="0 0 61 61" fill="none" xmlns="http://www.w3.org/2000/svg">
<path d="M34.3125 49.5625H49.5625V53.375H34.3125V49.5625Z" fill="white"/>
<path d="M34.3125 41.9375H57.1875V45.75H34.3125V41.9375Z" fill="white"/>
<path d="M34.3125 34.3125H57.1875V38.125H34.3125V34.3125Z" fill="white"/>
<path d="M39.1715 21.3824L30.5 3.8125L21.8285 21.3824L2.44 24.1998L16.47 37.8772L13.1569 57.1875L26.6875 50.0753V45.7672L18.2218 50.2182L20.2272 38.5215L20.5665 36.5447L19.1311 35.1474L10.6331 26.861L22.3775 25.1549L24.36 24.867L25.2483 23.0694L30.5 12.4268L35.7517 23.0694L36.64 24.867L38.6225 25.1549L52.8317 27.2232L53.375 23.4469L39.1715 21.3824Z" fill="white"/>
</svg>
