<svg width="54" height="54" viewBox="0 0 54 54" fill="none" xmlns="http://www.w3.org/2000/svg">
<path fill-rule="evenodd" clip-rule="evenodd" d="M10.5 54H43.5C49.299 54 54 49.299 54 43.5V10.5C54 4.701 49.299 0 43.5 0H10.5C4.701 0 0 4.701 0 10.5V43.5C0 49.299 4.701 54 10.5 54ZM29.6037 18.75H17.25C16.422 18.75 15.75 18.078 15.75 17.25V13.5C15.75 12.672 16.422 12 17.25 12H24.375V7.5C24.375 7.086 24.711 6.75 25.125 6.75H30.375C30.789 6.75 31.125 7.086 31.125 7.5V12H38.25C39.078 12 39.75 12.672 39.75 13.5V17.25C39.75 17.6623 39.5834 18.0359 39.3139 18.3071L25.1282 36H38.25C39.078 36 39.75 36.672 39.75 37.5V41.25C39.75 42.078 39.078 42.75 38.25 42.75H31.125V48C31.125 48.414 30.789 48.75 30.375 48.75H25.125C24.711 48.75 24.375 48.414 24.375 48V42.75H16.5C15.672 42.75 15 42.078 15 41.25V37.5C15 37.1323 15.1325 36.7954 15.3523 36.5344C15.3693 36.5045 15.3893 36.4752 15.4125 36.4471L29.6037 18.75Z" fill="#4B4B4B"/>
</svg>
