<svg width="30" height="31" viewBox="0 0 30 31" fill="none" xmlns="http://www.w3.org/2000/svg">
<path d="M27.7794 2.27937C27.3917 2.2974 27.0265 2.4101 26.7019 2.53633H26.6974C26.3683 2.66707 24.804 3.32527 22.4281 4.32159C20.0523 5.32241 16.9687 6.62078 13.9076 7.91013C7.79445 10.4843 1.78499 13.0179 1.78499 13.0179L1.85712 12.9909C1.85712 12.9909 1.44237 13.1261 1.00958 13.4237C0.788676 13.5679 0.545231 13.7663 0.333346 14.0774C0.121459 14.3884 -0.0498536 14.8663 0.013262 15.3577C0.116951 16.1917 0.657938 16.6921 1.04564 16.9671C1.43786 17.2466 1.81204 17.3774 1.81204 17.3774H1.82106L7.45633 19.2753C7.70879 20.0868 9.17396 24.9016 9.5256 26.0106C9.73298 26.6733 9.93585 27.0881 10.1883 27.4037C10.31 27.566 10.4543 27.7012 10.6256 27.8094C10.6932 27.85 10.7654 27.8815 10.8375 27.9086C10.86 27.9221 10.8826 27.9266 10.9096 27.9311L10.851 27.9176C10.8691 27.9221 10.8826 27.9356 10.8961 27.9401C10.9412 27.9537 10.9727 27.9582 11.0313 27.9672C11.924 28.2377 12.6408 27.6832 12.6408 27.6832L12.6814 27.6516L16.0084 24.6221L21.5851 28.9004L21.7113 28.9545C22.8744 29.4639 24.0511 29.1799 24.6732 28.6795C25.2999 28.1746 25.5433 27.5299 25.5433 27.5299L25.5839 27.4262L29.8937 5.34946C30.0155 4.80397 30.047 4.29454 29.9118 3.79863C29.7765 3.30273 29.4294 2.83838 29.0101 2.59043C28.5863 2.33797 28.1671 2.26133 27.7794 2.27937V2.27937ZM27.6622 4.64618C27.6577 4.71831 27.6712 4.70929 27.6396 4.84905V4.86257L23.3703 26.7094C23.3523 26.7409 23.3208 26.8086 23.2351 26.8762C23.1449 26.9483 23.0728 26.9934 22.6986 26.8446L15.8777 21.6151L11.7572 25.3705L12.6227 19.8434C12.6227 19.8434 23.3072 9.88473 23.7671 9.45645C24.2269 9.02817 24.0736 8.938 24.0736 8.938C24.1052 8.41505 23.3794 8.78472 23.3794 8.78472L9.32724 17.4901L9.32273 17.4675L2.58745 15.1999V15.1954C2.58295 15.1954 2.57393 15.1909 2.56942 15.1909C2.57393 15.1909 2.60549 15.1774 2.60549 15.1774L2.64155 15.1593L2.67762 15.1458C2.67762 15.1458 8.69158 12.6122 14.8047 10.038C17.8658 8.74866 20.9494 7.45029 23.3208 6.44947C25.6921 5.45315 27.4458 4.72282 27.545 4.68224C27.6396 4.64618 27.5945 4.64618 27.6622 4.64618Z" fill="#17BF83"/>
</svg>
