<svg width="49" height="44" viewBox="0 0 49 44" fill="none" xmlns="http://www.w3.org/2000/svg">
<path d="M2 14.3696C2 2.5 13.8696 2.5 24.0435 2.5C34.2174 2.5 46.087 2.5 46.087 14.3696C46.087 27.9348 34.2174 12.6739 34.2174 12.6739H13.8696C13.8696 12.6739 2 27.9348 2 14.3696ZM15.5652 17.7609C15.5652 17.7609 7.08696 26.2391 7.08696 41.5H41C41 26.2391 32.5217 17.7609 32.5217 17.7609H15.5652Z" stroke="white" stroke-width="4" stroke-linecap="round" stroke-linejoin="round"/>
<path d="M24.0435 36.4129C27.7894 36.4129 30.8261 33.3762 30.8261 29.6303C30.8261 25.8843 27.7894 22.8477 24.0435 22.8477C20.2976 22.8477 17.2609 25.8843 17.2609 29.6303C17.2609 33.3762 20.2976 36.4129 24.0435 36.4129Z" stroke="white" stroke-width="4" stroke-linecap="round" stroke-linejoin="round"/>
</svg>
