<svg width="30" height="31" viewBox="0 0 30 31" fill="none" xmlns="http://www.w3.org/2000/svg">
<path d="M9.1768 29.0358H9.04388C6.36618 29.0124 3.72719 28.3938 1.31801 27.2248C0.874849 27.0166 0.509963 26.6721 0.276767 26.2416C0.0435708 25.811 -0.0456885 25.3172 0.0220559 24.8323C0.0957331 24.3441 0.321766 23.8916 0.667883 23.5396C1.014 23.1875 1.46251 22.9537 1.94937 22.8717C3.44239 22.6725 4.8787 22.1693 6.16952 21.393C3.92846 19.6409 2.20316 17.315 1.17648 14.6621C0.149801 12.0091 -0.140019 9.12773 0.337737 6.32342C0.402514 5.87923 0.593545 5.463 0.888098 5.12426C1.18265 4.78553 1.56832 4.53855 1.99922 4.41272C2.41843 4.28106 2.86708 4.27544 3.28947 4.39654C3.71185 4.51764 4.08936 4.76014 4.37513 5.09392C5.34544 6.36626 6.56478 7.42757 7.95878 8.21312C9.35278 8.99868 10.8922 9.49199 12.4831 9.66299C12.5591 7.70552 13.4003 5.85607 14.8258 4.51241C15.5376 3.83083 16.3779 3.29772 17.2978 2.94415C18.2177 2.59058 19.1987 2.42363 20.1838 2.45301C21.1688 2.48239 22.1382 2.70752 23.0353 3.11529C23.9325 3.52305 24.7396 4.1053 25.4094 4.82809C25.584 4.98239 25.8008 5.08072 26.0319 5.11034C26.2629 5.13997 26.4976 5.09952 26.7054 4.99424C27.1015 4.8074 27.5427 4.73706 27.9773 4.79144C28.4119 4.84582 28.8221 5.02267 29.16 5.30135C29.4979 5.58004 29.7496 5.94906 29.8857 6.36538C30.0218 6.78169 30.0367 7.22813 29.9287 7.6526C29.5454 9.23119 28.8194 10.7061 27.802 11.9724C27.5777 16.6989 25.494 21.1451 22.005 24.3415C18.516 27.5379 13.9048 29.2253 9.1768 29.0358V29.0358ZM9.1768 25.7129H9.30972C11.2415 25.7793 13.1672 25.4616 14.9752 24.7782C16.7833 24.0948 18.4377 23.0593 19.8426 21.7318C21.2474 20.4042 22.3748 18.811 23.1592 17.0444C23.9437 15.2779 24.3697 13.3732 24.4126 11.4408C24.44 10.9112 24.6584 10.4095 25.0273 10.0285C25.4325 9.51553 25.7781 8.95812 26.0574 8.36704C25.4589 8.36817 24.8668 8.24297 24.32 7.99961C23.7731 7.75625 23.2838 7.40022 22.884 6.95478C22.4995 6.57356 22.0429 6.27287 21.5408 6.07031C21.0386 5.86776 20.5012 5.7674 19.9598 5.77513C19.413 5.76099 18.8688 5.85499 18.3584 6.05172C17.8481 6.24846 17.3816 6.54406 16.9857 6.92155C16.4517 7.4283 16.0601 8.06642 15.8502 8.77205C15.6403 9.47767 15.6193 10.2261 15.7895 10.9423L16.2215 12.8364L14.2775 12.9693C12.2856 13.1318 10.2821 12.8593 8.4059 12.1708C6.52968 11.4822 4.82553 10.3941 3.41147 8.98178C3.35083 11.1689 3.89795 13.3301 4.99203 15.2249C6.0861 17.1197 7.68425 18.674 9.60879 19.7149L11.1872 20.6121L10.1405 22.1075C9.00848 23.592 7.45748 24.7032 5.6877 25.2975C6.82301 25.582 7.98979 25.7216 9.16019 25.7129H9.1768Z" fill="#17BF83"/>
</svg>
