<svg width="30" height="31" viewBox="0 0 30 31" fill="none" xmlns="http://www.w3.org/2000/svg">
<path d="M21.8726 18.742C21.4996 18.5549 19.6646 17.6531 19.323 17.5275C18.9801 17.4032 18.7314 17.3416 18.4815 17.7159C18.2341 18.0889 17.5182 18.9292 17.3009 19.1778C17.0836 19.4278 16.8651 19.4579 16.492 19.272C16.119 19.0836 14.9158 18.6905 13.4903 17.4195C12.3813 16.4298 11.6315 15.2077 11.4142 14.8335C11.1969 14.4604 11.3916 14.2582 11.5775 14.0724C11.7458 13.9053 11.9517 13.6365 12.1376 13.4193C12.3248 13.2007 12.3863 13.045 12.5119 12.795C12.6362 12.5464 12.5747 12.3291 12.4805 12.1419C12.3863 11.9548 11.6403 10.1173 11.33 9.37003C11.0261 8.64282 10.7184 8.74205 10.4898 8.72949C10.2513 8.71998 10.0126 8.7158 9.7739 8.71693C9.52522 8.71693 9.1208 8.80987 8.77918 9.18414C8.43756 9.55717 7.47298 10.4602 7.47298 12.2977C7.47298 14.1339 8.81058 15.9086 8.99646 16.1585C9.1836 16.4072 11.629 20.1776 15.373 21.794C16.2635 22.1783 16.958 22.4082 17.5006 22.579C18.3948 22.8641 19.2087 22.8239 19.8505 22.7272C20.5676 22.6204 22.0585 21.8242 22.37 20.9525C22.6814 20.0809 22.6814 19.3336 22.5872 19.1778C22.4943 19.0221 22.2456 18.9292 21.8713 18.742M15.0628 28.0399H15.0577C12.8344 28.0401 10.6519 27.4423 8.73899 26.3092L8.28559 26.0404L3.58703 27.2738L4.84048 22.692L4.54533 22.2223C3.30248 20.2432 2.64498 17.9529 2.64883 15.6159C2.65008 8.77093 8.22028 3.20199 15.0678 3.20199C18.3835 3.20199 21.5008 4.49563 23.8445 6.84177C25.0008 7.99301 25.9173 9.36215 26.541 10.87C27.1647 12.3778 27.4832 13.9943 27.478 15.626C27.4742 22.471 21.9052 28.0399 15.0628 28.0399M25.6292 5.05956C24.2453 3.6666 22.5988 2.56213 20.785 1.81013C18.9712 1.05814 17.0263 0.673591 15.0628 0.678762C6.82993 0.678762 0.129364 7.37933 0.125596 15.6147C0.125596 18.2472 0.812608 20.8169 2.12007 23.0814L0 30.8219L7.91885 28.7445C10.1087 29.9376 12.5627 30.5628 15.0565 30.5631H15.0628C23.2943 30.5631 29.9962 23.8626 29.9999 15.626C30.006 13.6633 29.6228 11.7188 28.8726 9.90511C28.1224 8.09141 27.02 6.44447 25.6292 5.05956V5.05956Z" fill="#17BF83"/>
</svg>
